# File created by Blade
# Date/Time:  Thu Sep 25 19:36:54 2014
# Frame Rate: 120.000 fps
#------------------------------------------------------
:FULLY-SPECIFIED
:DEGREES
590
root 0.892579 34.169433 -0.835754 96.171509 1.877551 -30.519805
Spine -34.900800 -3.900502 13.933339
Head -48.573632 29.733190 19.165565
LeftShoulder -14.388268 3.053332 46.845034
LeftArm 46.806050 -44.758679 -17.894726
LeftForeArm 15.358135 -0.000000 15.989008
LeftHand -27.985770 0.000000 -0.031065
LeftHandThumb1 -26.253704 0.000000 33.147579
RightShoulder -26.998674 1.608397 -30.117388
RightArm -31.126259 -21.843772 52.974107
RightForeArm -42.175516 -0.000000 11.703618
RightHand -1.583297 -0.000000 22.778205
RightHandThumb1 -24.326973 -0.000000 -32.862282
LeftUpLeg -94.761481 24.437816 -4.137454
LeftLeg -9.061272 -0.000000 0.000000
LeftFoot -0.929496 7.116907 -11.965587
LeftToeBase 6.662581 -0.000000 -0.000000
RightUpLeg 18.400714 18.736626 -30.919317
RightLeg 100.988813 -0.000000 -0.000000
RightFoot 31.435590 -16.335801 19.861381
RightToeBase 8.275621 -0.000000 -0.000000
591
root 0.891484 34.169821 -0.842315 96.185071 1.895923 -30.490645
Spine -34.884071 -3.878929 13.895818
Head -48.532774 29.712863 19.088042
LeftShoulder -14.466603 3.093696 46.808473
LeftArm 46.941294 -44.850856 -18.012731
LeftForeArm 15.437661 -0.000000 16.082191
LeftHand -27.984938 0.000000 0.164341
LeftHandThumb1 -26.253704 0.000000 33.147579
RightShoulder -27.021986 1.598452 -30.143208
RightArm -31.109421 -21.800213 52.975747
RightForeArm -42.101057 -0.000000 11.695546
RightHand -1.442505 0.000000 22.427391
RightHandThumb1 -24.326973 -0.000000 -32.862282
LeftUpLeg -94.760195 24.420647 -4.066267
LeftLeg -9.057886 -0.000000 0.000000
LeftFoot -0.792111 7.123705 -11.721571
LeftToeBase 5.975280 -0.000000 -0.000000
RightUpLeg 18.381251 18.774372 -30.956209
RightLeg 101.018252 -0.000000 -0.000000
RightFoot 31.543713 -16.229886 19.945969
RightToeBase 8.247238 -0.000000 -0.000000
592
root 0.889926 34.168106 -0.847891 96.199063 1.913340 -30.481085
Spine -34.881456 -3.862094 13.866502
Head -48.432865 29.739943 19.054282
LeftShoulder -14.519556 3.181602 46.775047
LeftArm 47.044190 -44.951514 -18.084696
LeftForeArm 15.642022 -0.000000 16.075651
LeftHand -27.886319 -0.000000 0.387189
LeftHandThumb1 -26.253704 0.000000 33.147579
RightShoulder -27.001224 1.614381 -30.155255
RightArm -31.111815 -21.737980 52.932764
RightForeArm -42.115517 -0.000000 11.720850
RightHand -1.586194 -0.000000 22.752993
RightHandThumb1 -24.326973 -0.000000 -32.862282
LeftUpLeg -94.741320 24.418526 -3.992627
LeftLeg -9.101677 -0.000000 0.000000
LeftFoot -0.744194 7.193108 -11.632012
LeftToeBase 5.900474 -0.000000 -0.000000
RightUpLeg 18.361817 18.821745 -30.997763
RightLeg 101.041464 -0.000000 -0.000000
RightFoot 31.558858 -16.139985 19.976745
RightToeBase 8.294384 -0.000000 -0.000000
593
root 0.885932 34.163352 -0.852871 96.202849 1.945730 -30.491150
Spine -34.882915 -3.829034 13.862396
Head -48.291026 29.733343 19.040551
LeftShoulder -14.519044 3.167360 46.765205
LeftArm 46.911180 -44.881858 -17.910160
LeftForeArm 15.584163 -0.000000 16.076741
LeftHand -27.840587 0.000000 0.536768
LeftHandThumb1 -26.253704 0.000000 33.147579
RightShoulder -26.982229 1.607714 -30.183613
RightArm -31.071836 -21.698328 52.900200
RightForeArm -42.150047 -0.000000 11.709074
RightHand -1.587878 -0.000000 22.796843
RightHandThumb1 -24.326973 -0.000000 -32.862282
LeftUpLeg -94.721343 24.435593 -3.934360
LeftLeg -9.177919 -0.000000 0.000000
LeftFoot -0.743679 7.267774 -11.782255
LeftToeBase 6.301312 -0.000000 -0.000000
RightUpLeg 18.370109 18.932118 -30.984071
RightLeg 101.007518 -0.000000 -0.000000
RightFoot 31.644829 -16.070614 20.079974
RightToeBase 8.208293 -0.000000 -0.000000
594
root 0.881248 34.155888 -0.858333 96.199518 1.974563 -30.517701
Spine -34.891003 -3.747479 13.775733
Head -48.100768 29.717356 19.191450
LeftShoulder -14.462955 3.120634 46.847772
LeftArm 46.907828 -44.860474 -17.935359
LeftForeArm 15.560762 -0.000000 16.096632
LeftHand -27.898156 0.000000 0.536322
LeftHandThumb1 -26.253704 0.000000 33.147579
RightShoulder -27.011617 1.565529 -30.133381
RightArm -31.027251 -21.746935 52.849580
RightForeArm -42.133863 -0.000000 11.669036
RightHand -1.519943 -0.000000 22.738178
RightHandThumb1 -24.326973 -0.000000 -32.862282
LeftUpLeg -94.653176 24.470114 -3.803793
LeftLeg -9.259527 -0.000000 0.000000
LeftFoot -0.790146 7.431983 -11.718103
LeftToeBase 6.357260 -0.000000 -0.000000
RightUpLeg 18.396739 19.051504 -30.974046
RightLeg 100.957832 -0.000000 -0.000000
RightFoot 31.599940 -16.095893 20.164518
RightToeBase 8.228896 -0.000000 -0.000000
595
root 0.875474 34.147196 -0.860530 96.213740 2.014608 -30.547805
Spine -34.924844 -3.756477 13.869199
Head -47.930435 29.732508 19.146863
LeftShoulder -14.515737 3.104085 46.783534
LeftArm 46.821673 -44.782753 -17.815832
LeftForeArm 15.469309 -0.000000 16.142637
LeftHand -27.993451 -0.000000 0.412758
LeftHandThumb1 -26.253704 0.000000 33.147579
RightShoulder -26.946109 1.612560 -30.200586
RightArm -30.985634 -21.832254 52.841018
RightForeArm -42.224328 -0.000000 11.721054
RightHand -1.624693 -0.000000 22.891176
RightHandThumb1 -24.326973 -0.000000 -32.862282
LeftUpLeg -94.640438 24.494406 -3.766684
LeftLeg -9.342547 -0.000000 0.000000
LeftFoot -0.833615 7.543928 -11.582586
LeftToeBase 6.276359 -0.000000 -0.000000
RightUpLeg 18.404660 19.187422 -30.929981
RightLeg 100.881925 -0.000000 -0.000000
RightFoot 31.670634 -16.076595 20.115796
RightToeBase 8.107180 -0.000000 -0.000000
596
root 0.868433 34.138026 -0.862898 96.231906 2.054588 -30.558986
Spine -34.972399 -3.765510 13.911601
Head -47.745388 29.763404 19.221686
LeftShoulder -14.525409 3.038433 46.798564
LeftArm 46.745640 -44.677090 -17.758755
LeftForeArm 15.452814 -0.000000 16.158940
LeftHand -28.015264 0.000000 0.369733
LeftHandThumb1 -26.253704 0.000000 33.147579
RightShoulder -26.911516 1.622652 -30.218130
RightArm -30.925358 -21.891222 52.795861
RightForeArm -42.291504 -0.000000 11.724956
RightHand -1.552909 -0.000000 22.866802
RightHandThumb1 -24.326973 -0.000000 -32.862282
LeftUpLeg -94.630824 24.502152 -3.711612
LeftLeg -9.408290 -0.000000 0.000000
LeftFoot -0.863283 7.643005 -11.487896
LeftToeBase 6.373796 -0.000000 -0.000000
RightUpLeg 18.439331 19.288622 -30.869885
RightLeg 100.803624 -0.000000 -0.000000
RightFoot 31.615924 -16.151028 20.045223
RightToeBase 8.029892 -0.000000 -0.000000
597
root 0.859470 34.130656 -0.865810 96.272028 2.107930 -30.569704
Spine -35.052504 -3.763381 13.940950
Head -47.544279 29.778547 19.364361
LeftShoulder -14.500060 2.996034 46.850592
LeftArm 46.701704 -44.625705 -17.774445
LeftForeArm 15.483886 -0.000000 16.195245
LeftHand -28.001868 -0.000000 0.288603
LeftHandThumb1 -26.253704 0.000000 33.147579
RightShoulder -26.869479 1.625893 -30.222316
RightArm -30.915095 -21.927131 52.749872
RightForeArm -42.373673 -0.000000 11.783130
RightHand -1.541367 -0.000000 22.902318
RightHandThumb1 -24.326973 -0.000000 -32.862282
LeftUpLeg -94.684808 24.506691 -3.718107
LeftLeg -9.452774 -0.000000 0.000000
LeftFoot -0.890608 7.672210 -11.363491
LeftToeBase 6.409125 -0.000000 -0.000000
RightUpLeg 18.461126 19.363562 -30.792270
RightLeg 100.736071 -0.000000 -0.000000
RightFoot 31.424699 -16.331157 20.049271
RightToeBase 8.099474 -0.000000 -0.000000
598
root 0.852040 34.122971 -0.870604 96.304852 2.143637 -30.557342
Spine -35.111756 -3.776689 13.934650
Head -47.396355 29.795193 19.497901
LeftShoulder -14.478186 2.940739 46.899167
LeftArm 46.721286 -44.616110 -17.836907
LeftForeArm 15.454109 -0.000000 16.208039
LeftHand -27.931847 -0.000000 0.167744
LeftHandThumb1 -26.253704 0.000000 33.147579
RightShoulder -26.847460 1.618593 -30.213965
RightArm -30.899220 -21.963864 52.713476
RightForeArm -42.517805 -0.000000 11.859515
RightHand -1.510415 -0.000000 22.884827
RightHandThumb1 -24.326973 -0.000000 -32.862282
LeftUpLeg -94.727481 24.489503 -3.719575
LeftLeg -9.492661 -0.000000 0.000000
LeftFoot -0.915934 7.706781 -11.279647
LeftToeBase 6.393984 -0.000000 -0.000000
RightUpLeg 18.516125 19.435193 -30.724357
RightLeg 100.653050 -0.000000 -0.000000
RightFoot 31.247847 -16.477307 20.057817
RightToeBase 8.254345 -0.000000 -0.000000
599
root 0.843231 34.117678 -0.872820 96.363940 2.201329 -30.517601
Spine -35.205371 -3.802123 13.949436
Head -47.286996 29.792206 19.637565
LeftShoulder -14.436196 2.870848 46.955982
LeftArm 46.731375 -44.608331 -17.878065
LeftForeArm 15.454816 -0.000000 16.176299
LeftHand -28.292095 -0.000000 -0.237884
LeftHandThumb1 -26.253704 0.000000 33.147579
RightShoulder -26.837058 1.645008 -30.209876
RightArm -30.908487 -22.047382 52.677665
RightForeArm -42.612266 -0.000000 11.898554
RightHand -1.475335 -0.000000 22.894163
RightHandThumb1 -24.326973 -0.000000 -32.862282
LeftUpLeg -94.809826 24.451762 -3.727177
LeftLeg -9.510595 -0.000000 0.000000
LeftFoot -0.918564 7.691011 -11.239299
LeftToeBase 6.429114 -0.000000 -0.000000
RightUpLeg 18.547925 19.467537 -30.625605
RightLeg 100.573086 -0.000000 -0.000000
RightFoot 31.197796 -16.606578 19.965619
RightToeBase 8.020745 -0.000000 -0.000000
600
root 0.834791 34.113286 -0.877274 96.415657 2.255210 -30.471530
Spine -35.263543 -3.827960 13.949635
Head -47.272722 29.764600 19.737340
LeftShoulder -14.408273 2.830107 46.974250
LeftArm 46.836056 -44.725018 -18.019229
LeftForeArm 15.499166 -0.000000 16.194604
LeftHand -28.349519 -0.000000 -0.307061
LeftHandThumb1 -26.253704 0.000000 33.147579
RightShoulder -26.843847 1.639496 -30.219661
RightArm -30.897162 -22.122996 52.704987
RightForeArm -42.708193 -0.000000 11.907785
RightHand -1.448969 -0.000000 22.904572
RightHandThumb1 -24.326973 -0.000000 -32.862282
LeftUpLeg -94.901291 24.407327 -3.768411
LeftLeg -9.528225 -0.000000 0.000000
LeftFoot -0.909146 7.640075 -11.198977
LeftToeBase 6.430093 -0.000000 -0.000000
RightUpLeg 18.600189 19.469372 -30.536905
RightLeg 100.533599 -0.000000 -0.000000
RightFoot 30.972506 -16.754087 19.852152
RightToeBase 8.238774 -0.000000 -0.000000
